<svg xmlns="http://www.w3.org/2000/svg" viewBox="0 0 512 512" role="img" aria-labelledby="title desc">
  <title id="title">Atlas Invest</title>
  <desc id="desc">Ícone do aplicativo Atlas Invest</desc>
  <rect width="512" height="512" rx="112" fill="#0f1419"/>
  <path fill="#243040" d="M92 360c0-17.7 14.3-32 32-32h264c17.7 0 32 14.3 32 32v34c0 17.7-14.3 32-32 32H124c-17.7 0-32-14.3-32-32v-34Z"/>
  <path fill="#34d399" d="M139 303c-13.8 0-25-11.2-25-25v-58c0-13.8 11.2-25 25-25s25 11.2 25 25v58c0 13.8-11.2 25-25 25Z"/>
  <path fill="#3d8bfd" d="M224 303c-13.8 0-25-11.2-25-25V137c0-13.8 11.2-25 25-25s25 11.2 25 25v141c0 13.8-11.2 25-25 25Z"/>
  <path fill="#f87171" d="M309 303c-13.8 0-25-11.2-25-25v-96c0-13.8 11.2-25 25-25s25 11.2 25 25v96c0 13.8-11.2 25-25 25Z"/>
  <path fill="#f8fafc" d="M381 120a23 23 0 0 1 23 23v135c0 13.8-11.2 25-25 25s-25-11.2-25-25V190l-84 79a25 25 0 0 1-33.8.5l-47.7-42-42.7 40.1a25 25 0 1 1-34.3-36.4l59.3-55.8a25 25 0 0 1 33.6-.5l47.6 41.9 71.1-67H289a25 25 0 0 1 0-50h92Z"/>
</svg>
